<?xml version="1.0" standalone="no"?>
<!DOCTYPE svg PUBLIC "-//W3C//DTD SVG 20010904//EN"
 "http://www.w3.org/TR/2001/REC-SVG-20010904/DTD/svg10.dtd">
<svg version="1.0" xmlns="http://www.w3.org/2000/svg"
 width="260.000000pt" height="260.000000pt" viewBox="0 0 260.000000 260.000000"
 preserveAspectRatio="xMidYMid meet">
<metadata>
Created by potrace 1.11, written by Peter Selinger 2001-2013
</metadata>
<g transform="translate(0.000000,260.000000) scale(0.100000,-0.100000)"
fill="#000000" stroke="none">
<path d="M150 1305 l0 -335 75 0 75 0 0 161 0 161 106 -161 107 -161 95 0 c74
0 92 3 85 13 -6 6 -63 85 -127 175 l-118 162 93 128 c51 70 104 142 117 160
l24 32 -89 0 -90 0 -29 -42 c-15 -24 -61 -94 -101 -157 l-73 -114 0 157 0 156
-75 0 -75 0 0 -335z"/>
<path d="M2072 1441 c-103 -36 -151 -108 -152 -229 0 -81 17 -132 58 -175 95
-100 293 -102 387 -3 48 49 65 100 65 187 0 80 -24 133 -79 181 -69 59 -177
74 -279 39z m147 -102 c42 -15 64 -60 64 -129 0 -69 -22 -114 -64 -129 -42
-15 -55 -14 -94 5 -84 39 -80 207 6 251 30 16 47 16 88 2z"/>
<path d="M750 1210 l0 -240 73 0 72 1 98 151 97 151 0 -151 0 -152 70 0 70 0
0 240 0 240 -74 0 -74 0 -96 -147 -96 -148 0 148 0 147 -70 0 -70 0 0 -240z"/>
<path d="M1350 1210 l0 -240 75 0 75 0 0 100 0 100 85 0 85 0 0 -100 0 -100
75 0 75 0 0 240 0 240 -75 0 -75 0 0 -90 0 -90 -85 0 -85 0 0 90 0 90 -75 0
-75 0 0 -240z"/>
</g>
</svg>
