<svg version="1.0" xmlns="http://www.w3.org/2000/svg" width="346.667" height="346.667" viewBox="0 0 260 260"><path d="M15 129.5V163h15v-32.2l10.6 16.1L51.3 163h9.5c7.4 0 9.2-.3 8.5-1.3-.6-.6-6.3-8.5-12.7-17.5L44.8 128l9.3-12.8c5.1-7 10.4-14.2 11.7-16l2.4-3.2H50.3l-2.9 4.2c-1.5 2.4-6.1 9.4-10.1 15.7L30 127.3V96H15v33.5zm192.2-13.6c-10.3 3.6-15.1 10.8-15.2 22.9 0 8.1 1.7 13.2 5.8 17.5 9.5 10 29.3 10.2 38.7.3 4.8-4.9 6.5-10 6.5-18.7 0-8-2.4-13.3-7.9-18.1-6.9-5.9-17.7-7.4-27.9-3.9zm14.7 10.2c4.2 1.5 6.4 6 6.4 12.9s-2.2 11.4-6.4 12.9-5.5 1.4-9.4-.5c-8.4-3.9-8-20.7.6-25.1 3-1.6 4.7-1.6 8.8-.2zM75 139v24h7.3l7.2-.1 9.8-15.1 9.7-15.1V163h14v-48h-14.8l-9.6 14.7-9.6 14.8V115H75v24zm60 0v24h15v-20h17v20h15v-48h-15v18h-17v-18h-15v24z"/></svg>